<svg width="27" height="31" viewBox="0 0 27 31" fill="none" xmlns="http://www.w3.org/2000/svg">
<path d="M25.4795 5.19128C25.4435 5.08334 25.3536 5.00417 25.2421 4.97898C25.2025 4.97179 24.2418 4.75589 23.4646 4.77028C23.0004 4.77388 22.5362 4.9466 22.1944 5.11932C22.1116 4.93581 22.0037 4.7631 21.8849 4.60478C21.9389 4.30613 22.0936 3.96431 22.3887 3.46056C22.7233 2.89925 23.7884 2.16522 24.1734 1.93134C24.2993 1.85577 24.3569 1.70464 24.3173 1.56071C24.2777 1.42038 24.1482 1.32324 24.0043 1.32324H24.0007C21.9029 1.34843 20.8595 2.63657 20.5572 3.83837C20.3126 3.86355 20.129 3.93911 20.0031 3.98948C19.9779 4.00028 19.9563 4.00748 19.9383 4.01467C19.9203 4.00748 19.8988 4.00028 19.8772 3.98948C19.7476 3.93551 19.5677 3.86355 19.3194 3.83837C19.0172 2.63657 17.9737 1.34843 15.876 1.32324H15.8724C15.7285 1.32324 15.5989 1.42038 15.5594 1.56071C15.5198 1.70104 15.5774 1.85218 15.7033 1.93134C16.0847 2.16522 17.1534 2.89925 17.488 3.46056C17.783 3.96431 17.9378 4.30973 17.9917 4.60478C17.8694 4.7631 17.7651 4.93941 17.6823 5.11932C17.3405 4.9466 16.8763 4.77388 16.4121 4.77028C15.6349 4.76668 14.6778 4.96819 14.6382 4.97898C14.5267 5.00417 14.4403 5.08334 14.4008 5.19128C14.3648 5.29923 14.3827 5.41437 14.4547 5.50432C14.5303 5.59788 15.2031 6.43264 15.6745 6.7097C16.1315 6.97597 16.4193 7.08032 17.506 7.04793C17.56 7.44014 17.6427 7.78197 17.7219 8.1166C17.7902 8.40806 17.8586 8.68511 17.9018 8.98376C17.9234 9.13488 17.9522 9.29679 17.9881 9.4695C17.8298 9.89768 17.542 10.5921 17.1749 11.0239C16.6424 11.6536 16.0883 12.1034 13.8179 12.1034C12.8967 12.1034 11.9252 12.0026 10.9861 11.9055C9.51799 11.7544 8.12913 11.6104 7.1972 11.8947C6.15733 12.2149 5.36934 12.5604 4.73246 12.9741C4.40502 12.8986 3.89046 12.7187 3.45149 12.2941C2.73545 11.5996 2.28208 10.7217 2.27848 10.7109C2.21371 10.5849 2.0806 10.5166 1.94027 10.5346C1.80354 10.5526 1.69199 10.6605 1.6632 10.7972C1.65241 10.8476 1.41853 12.0818 1.53007 12.9561C1.53007 12.9597 1.53008 12.9633 1.53367 12.9705C1.49769 13.0461 1.49408 13.1289 1.51927 13.208C1.57324 13.3735 1.62723 13.4815 1.67401 13.5498C1.67401 13.5534 1.67757 13.5606 1.67757 13.5642C1.70995 13.7046 1.79274 13.8737 1.94027 13.978C1.96186 14.032 1.99781 14.0824 2.04819 14.122C2.05898 14.1292 2.31806 14.3235 2.63829 14.4602C2.79302 14.525 2.98734 14.5717 3.19603 14.6005C3.19603 14.6041 3.19243 14.6041 3.19243 14.6077C2.6527 15.68 2.89377 16.6983 3.08807 17.515C3.17442 17.8713 3.25357 18.2095 3.25717 18.4973C3.26077 18.6665 3.26438 18.868 3.27158 19.0874C3.29676 20.1345 3.33994 21.7177 3.2212 22.2359L3.20323 22.315C3.05571 22.9555 2.92616 23.506 3.32196 24.1501C3.62061 24.6322 4.18192 26.5573 4.48416 27.7735C4.54173 28.0037 4.59213 28.234 4.6389 28.4931C4.6461 28.5255 4.64967 28.5578 4.65687 28.601L4.69644 28.8817C4.72523 29.1371 4.72165 29.2559 4.72165 29.2559C4.71086 29.389 4.78283 29.5186 4.90516 29.5761C5.0275 29.6337 5.17143 29.6121 5.26858 29.5222L5.60319 29.2127L6.22567 29.4394C6.34441 29.4826 6.47757 29.443 6.56752 29.353C6.65748 29.2631 6.68264 29.1156 6.63587 28.9968L6.54231 28.7557C6.53871 28.7486 6.53511 28.7414 6.53511 28.7342C6.51352 28.6766 6.49195 28.6118 6.47036 28.5434C6.42719 28.4067 6.3732 28.2448 6.32283 28.0649C6.24726 27.7914 6.1933 27.5575 6.15012 27.3273C5.97741 26.4421 5.49524 24.0062 5.3765 23.4053C5.41968 23.3441 5.47725 23.2541 5.54921 23.1498C5.54921 23.1786 5.55281 23.2074 5.55641 23.2397C5.62118 24.0133 5.82628 24.3912 6.18609 24.3912C6.25806 24.3912 6.31923 24.3732 6.37321 24.3444C6.40919 24.3912 6.44875 24.4415 6.49193 24.4919C6.98488 25.082 7.73331 26.2442 8.20827 27.4064C8.37378 27.8166 8.52133 28.1693 8.63647 28.4463L8.93151 29.1659C8.9351 29.1767 8.95312 29.2163 8.95672 29.2271C8.96391 29.2415 8.96748 29.2559 8.97468 29.2667C8.99987 29.335 9.01426 29.3638 9.01426 29.3638C9.06103 29.4682 9.16178 29.5437 9.28052 29.5545C9.39566 29.5617 9.51083 29.515 9.5792 29.4214L9.79868 29.1192L10.5003 29.2055C10.619 29.2199 10.7378 29.1659 10.8061 29.0688C10.8745 28.9716 10.8853 28.8421 10.8314 28.7342C10.8278 28.7306 10.8241 28.7234 10.8205 28.7126C10.817 28.709 10.8169 28.7018 10.8133 28.6982L10.799 28.6694L10.7738 28.6154C10.727 28.5219 10.655 28.3779 10.5615 28.1836L10.3744 27.795C10.2233 27.4784 9.98217 26.9603 9.69072 26.3054C9.56478 26.0175 9.43527 25.7297 9.31293 25.449C8.92793 24.5819 8.44938 23.506 8.42059 23.3261C8.42419 23.2325 8.5393 22.8763 8.61486 22.6424C8.67243 22.4697 8.73004 22.2898 8.78041 22.1243C9.33453 22.1783 10.655 22.2826 12.2311 22.2826C12.8859 22.2826 13.7423 22.2178 14.7821 22.0883C14.8541 23.0418 14.9225 23.837 14.9873 24.5099C15.0988 25.6397 15.1384 27.3129 15.1528 28.2052L15.1564 28.6046C15.16 28.6694 15.16 28.727 15.16 28.7845C15.1636 29.0472 15.1636 29.2019 15.1636 29.2019C15.1636 29.3171 15.2247 29.425 15.3219 29.4826C15.419 29.5402 15.545 29.5437 15.6457 29.4898L16.0055 29.2955L16.5525 29.6301C16.6064 29.6625 16.664 29.6769 16.7216 29.6769C16.7827 29.6769 16.8439 29.6589 16.8979 29.6265C17.0022 29.5581 17.0598 29.4358 17.0454 29.3135L16.9627 28.6406L16.9591 28.6082C16.9519 28.5147 16.941 28.4175 16.9302 28.3096C16.9302 28.2952 16.9266 28.2808 16.923 28.2664C16.7647 26.7372 16.7144 25.6073 16.7756 24.9956C16.8511 24.1609 17.1965 22.5417 17.3872 21.6961C17.4268 21.6889 17.4664 21.6817 17.4988 21.6745C17.6283 22.2287 17.9162 23.4161 18.1536 24.2185C18.3335 24.8157 18.4991 25.6289 18.6466 26.3486C18.7581 26.8847 18.8589 27.392 18.9524 27.7303C19.0028 27.9174 19.064 28.1153 19.1467 28.3456C19.2511 28.6406 19.3734 28.95 19.5066 29.2415C19.5066 29.2415 19.5138 29.2523 19.5174 29.2595C19.5354 29.2991 19.5605 29.3386 19.5893 29.371C19.6505 29.4322 19.744 29.461 19.8268 29.4682C19.9168 29.4646 19.9995 29.4286 20.0607 29.3638L20.3306 29.0688L21.0142 29.1947C21.1402 29.2163 21.2697 29.1659 21.3416 29.058C21.4136 28.9536 21.4208 28.8133 21.3524 28.7018C21.3488 28.6982 21.1257 28.3204 20.9063 27.8094C20.7767 27.5072 20.6759 27.2229 20.6112 26.971L20.5536 26.7444C20.327 25.8808 20.0679 24.8985 20.0427 23.4988C20.0175 22.2287 20.0031 20.9369 19.9995 20.5051C20.201 20.3216 20.6112 19.915 20.9278 19.3573C21.1005 19.0479 21.2625 18.6449 21.41 18.1555C21.5791 17.7849 21.7051 17.3351 21.8094 16.745C22.0433 15.4065 22.1656 13.2908 21.4532 10.7685C21.7087 10.3259 21.8886 9.73937 22.0037 8.97655C22.0505 8.6743 22.1153 8.40085 22.1836 8.1094C22.2628 7.77477 22.3455 7.43293 22.3995 7.04073C23.4862 7.07311 23.774 6.96878 24.231 6.69892C24.7023 6.42186 25.3752 5.58707 25.4471 5.49352C25.4975 5.41796 25.5191 5.29923 25.4795 5.19128Z" fill="white" stroke="white" stroke-width="1.41103" stroke-miterlimit="10" stroke-linecap="round" stroke-linejoin="round"/>
<path d="M18.3816 9.29004C18.3816 9.29004 18.0038 10.5422 17.4101 11.2439C16.8164 11.9455 16.1867 12.4384 13.8047 12.4384C11.4227 12.4384 8.70966 11.7764 7.28118 12.2154C5.85271 12.6543 4.17956 13.3524 3.46352 14.7701C2.75108 16.1878 3.54985 17.4831 3.56784 18.505C3.58583 19.5269 3.67578 21.6534 3.52106 22.3226C3.36634 22.9919 3.24041 23.4417 3.57864 23.9922C3.91687 24.5391 4.49976 26.5793 4.77682 27.7055C5.05388 28.8318 5.02872 29.2923 5.02872 29.2923L5.50726 28.8461L6.31685 29.1448C6.31685 29.1448 5.99664 28.4072 5.80234 27.3961C5.60803 26.385 5.00351 23.3409 5.00351 23.3409C5.00351 23.3409 6.27367 21.5238 6.89615 20.0198C6.89615 20.0198 8.63411 20.6315 10.8902 20.7862C13.1462 20.9409 14.9813 20.7071 14.9813 20.7071C14.9813 20.7071 15.1144 22.74 15.2835 24.4852C15.4562 26.2267 15.4598 29.2096 15.4598 29.2096L15.9852 28.9253L16.694 29.3607C16.694 29.3607 16.2946 26.3022 16.4206 24.9709C16.5465 23.6396 17.3237 20.3652 17.3237 20.3652C17.3237 20.3652 18.7593 20.0666 19.7632 19.4225C20.7671 18.7784 21.1917 18.2387 21.4616 16.7023C21.7315 15.1659 21.7782 13.0106 21.019 10.5602L18.3816 9.29004Z" fill="#F0F2F1"/>
<path d="M12.2059 21.9601C13.0442 21.9601 14.0949 21.8522 15.0556 21.7262C15.0125 21.1181 14.9837 20.7044 14.9837 20.7044C14.9837 20.7044 13.1486 20.9382 10.8926 20.7835C8.63651 20.6288 6.89855 20.0171 6.89855 20.0171C6.69346 20.5136 6.4164 21.0462 6.13574 21.5355C6.25808 21.9241 6.39484 22.4531 6.39124 22.8669C6.38405 23.6153 6.26527 23.7304 6.71865 24.2773C7.17202 24.8243 7.96363 26.0045 8.48896 27.2782C9.0107 28.5556 9.28775 29.2248 9.28775 29.2248L9.6224 28.7679L10.5147 28.8758C10.5147 28.8758 9.98219 27.8323 9.3669 26.4326C8.75161 25.033 8.07515 23.5685 8.06436 23.3346C8.05357 23.1007 8.38823 22.2912 8.50697 21.7658C8.51057 21.7766 10.1189 21.9601 12.2059 21.9601Z" fill="#CED0CF"/>
<path d="M19.698 23.5189C19.6692 21.9608 19.6549 20.3705 19.6549 20.3705C19.6549 20.3705 20.2234 19.9207 20.6263 19.2082C20.8278 18.8556 20.979 18.4094 21.0833 18.0532C20.8063 18.6505 20.4033 19.0175 19.77 19.4241C18.7661 20.0682 17.3304 20.3668 17.3304 20.3668C17.3304 20.3668 17.2261 20.8022 17.0894 21.4175C17.4816 21.3491 17.7262 21.3024 17.7262 21.3024C17.7262 21.3024 18.1328 23.0727 18.4495 24.1341C18.7661 25.1956 19.0396 26.8831 19.2483 27.6532C19.457 28.4232 19.8024 29.15 19.8024 29.15L20.1946 28.7218L21.0582 28.8801C21.0582 28.8801 20.5292 28.0058 20.2809 27.0631C20.0327 26.1203 19.7268 25.0769 19.698 23.5189Z" fill="#CED0CF"/>
<path d="M3.74166 14.3162C4.02232 13.9276 4.38211 13.6038 4.7887 13.3267C4.49725 13.2763 3.7992 13.1036 3.2127 12.5351C2.44629 11.7939 1.97495 10.8691 1.97495 10.8691C1.97495 10.8691 1.74107 12.0889 1.84542 12.9273C1.84542 12.9273 2.05412 13.1396 2.25561 13.1612C2.25561 13.1612 1.98932 13.1576 1.8202 13.118C1.8202 13.118 1.89938 13.3627 1.96774 13.4131C1.96774 13.4131 2.19441 13.4454 2.26637 13.449C2.26637 13.449 2.15846 13.5066 1.98215 13.4994C1.98215 13.4994 2.03251 13.7153 2.19443 13.7549C2.19443 13.7549 2.35996 13.7729 2.43192 13.7549C2.43192 13.7549 2.32756 13.8268 2.234 13.8664C2.234 13.8664 2.46431 14.0427 2.74856 14.1615C3.00763 14.2802 3.40703 14.3306 3.74166 14.3162Z" fill="#CED0CF"/>
<path d="M5.61548 22.4127C5.68744 22.5171 5.77737 22.6466 5.81695 22.6898C5.88532 22.7725 5.83134 22.9273 5.85653 23.2151C5.88891 23.6037 5.9825 24.0679 6.15881 24.0679C6.25596 24.0679 6.42145 23.8232 6.49341 22.9884C6.49341 22.9884 6.79207 23.0244 6.91081 22.9956C6.91081 22.9956 7.01876 23.5461 7.1411 23.7764C7.26344 24.0067 7.34621 24.0391 7.42177 24.0319C7.49733 24.0247 7.63766 23.7692 7.5513 22.7473C7.5513 22.7473 7.84276 22.6826 8.50843 21.7794C8.50843 21.7794 6.97919 21.5491 6.20558 21.416C6.00409 21.7758 5.79899 22.1177 5.61548 22.4127Z" fill="#F6C5B6"/>
<path d="M25.1689 5.29931C25.1689 5.29931 24.4709 6.17367 24.0391 6.42914C23.6145 6.68101 23.3735 6.77096 22.0817 6.71339C22.0061 7.57335 21.7686 8.18145 21.6535 8.94066C21.5168 9.8474 21.1534 11.4054 19.93 11.4054C18.7066 11.4054 18.3432 9.8474 18.2065 8.94066C18.0913 8.18145 17.8538 7.57335 17.7783 6.71339C16.4865 6.77096 16.2455 6.67742 15.8209 6.42914C15.3891 6.17727 14.691 5.29931 14.691 5.29931C14.691 5.29931 15.6374 5.08702 16.3894 5.09781C17.0083 5.10501 17.6343 5.46482 17.8358 5.59076C18.0805 4.74159 18.793 4.15869 19.1384 4.15869C19.5594 4.15869 19.7933 4.34938 19.9264 4.34938C20.0595 4.34938 20.2934 4.15869 20.7144 4.15869C21.0598 4.15869 21.7722 4.74159 22.0169 5.59076C22.2184 5.46482 22.8445 5.10501 23.4634 5.09781C24.2226 5.09061 25.1689 5.29931 25.1689 5.29931Z" fill="#CED0CF"/>
<path d="M21.956 5.40021C21.7437 5.4146 21.2867 5.49378 20.9377 5.88958C20.4663 6.4257 20.3296 7.15972 20.3512 7.9873C20.3728 8.7645 20.5239 9.23227 20.5419 9.28984C20.5059 9.23227 20.4447 9.1891 20.3512 9.1891C20.0597 9.1891 20.013 9.38339 19.9338 9.38339C19.8511 9.38339 19.8079 9.1891 19.5164 9.1891C19.4193 9.1891 19.3581 9.22867 19.3257 9.28984C19.3437 9.23586 19.4948 8.7645 19.5164 7.9873C19.538 7.15972 19.4013 6.4257 18.9299 5.88958C18.5809 5.49378 18.1239 5.4146 17.9116 5.40021C18.1995 4.65898 18.8292 4.16604 19.1494 4.16604C19.5704 4.16604 19.8043 4.35675 19.9374 4.35675C20.0705 4.35675 20.3044 4.16604 20.7254 4.16604C21.0385 4.16244 21.6682 4.65538 21.956 5.40021Z" fill="#F0F2F1"/>
<path d="M20.7327 10.3543C20.5672 10.5162 20.3009 10.6493 19.9339 10.6493C19.5669 10.6493 19.3006 10.5162 19.1351 10.3543C18.9696 10.196 18.9732 10.052 19.0451 10.0376C19.1171 10.0232 19.1639 10.0808 19.2503 10.2176C19.3366 10.3543 19.6353 10.4946 19.8691 10.509V9.99446C19.7288 9.96568 19.4517 9.81096 19.3546 9.68503C19.2574 9.55909 19.2215 9.18848 19.5129 9.18848C19.8044 9.18848 19.8512 9.38277 19.9303 9.38277C20.0131 9.38277 20.0562 9.18848 20.3477 9.18848C20.6391 9.18848 20.5996 9.55909 20.506 9.68503C20.4089 9.81096 20.1318 9.96568 19.9915 9.99446V10.509C20.2254 10.4946 20.524 10.3543 20.6103 10.2176C20.6967 10.0844 20.7471 10.0232 20.8191 10.0376C20.8946 10.052 20.8982 10.1924 20.7327 10.3543Z" fill="#736959"/>
<path d="M19.664 9.50275C19.5849 9.45957 19.5237 9.40199 19.4661 9.45597C19.4085 9.50994 19.4445 9.63229 19.5633 9.68986C19.682 9.74743 19.7611 9.71145 19.7755 9.64668C19.7899 9.57472 19.7252 9.53873 19.664 9.50275Z" fill="#504740"/>
<path d="M19.0508 7.27138C19.0185 7.27138 18.9933 7.24979 18.9825 7.221C18.9465 7.09147 18.8241 6.99792 18.6838 6.99792C18.5435 6.99792 18.4212 7.09147 18.3852 7.221C18.378 7.24979 18.3492 7.27138 18.3168 7.27138C18.27 7.27138 18.2341 7.2282 18.2485 7.18143C18.3024 6.99072 18.4787 6.854 18.6838 6.854C18.8925 6.854 19.0653 6.99432 19.1192 7.18143C19.1336 7.22461 19.0976 7.27138 19.0508 7.27138Z" fill="#675749"/>
<path d="M18.3259 4.70585C18.5706 4.41799 18.8477 4.2273 19.0492 4.17693C18.8801 3.10107 17.9913 1.68339 15.8684 1.6582C15.8684 1.6582 17.3149 2.54336 17.7611 3.30257C18.1317 3.92866 18.29 4.33164 18.3259 4.70585Z" fill="#C7C7C7"/>
<path d="M17.7707 6.55559C17.4973 6.56638 16.9467 6.57358 16.5185 6.49083C15.9248 6.37568 15.3707 5.70643 15.3707 5.70643C15.3707 5.70643 15.7378 5.54091 16.5042 5.5769C17.1087 5.60568 17.5944 5.87553 17.7707 5.99067C17.7635 6.05544 17.7599 6.12381 17.7599 6.19217C17.7599 6.31451 17.7635 6.43685 17.7707 6.55559Z" fill="#565857"/>
<path d="M20.2036 9.50275C20.2827 9.45957 20.3439 9.40199 20.4014 9.45597C20.459 9.50634 20.423 9.63229 20.3043 9.68986C20.1855 9.74743 20.1064 9.71145 20.092 9.64668C20.0776 9.57472 20.1424 9.53873 20.2036 9.50275Z" fill="#504740"/>
<path d="M20.815 7.27138C20.8474 7.27138 20.8726 7.24979 20.8833 7.221C20.9193 7.09147 21.0417 6.99792 21.182 6.99792C21.3224 6.99792 21.4447 7.09147 21.4807 7.221C21.4879 7.24979 21.5167 7.27138 21.549 7.27138C21.5958 7.27138 21.6318 7.2282 21.6174 7.18143C21.5634 6.99072 21.3871 6.854 21.182 6.854C20.9733 6.854 20.8006 6.99432 20.7466 7.18143C20.7322 7.22461 20.7682 7.27138 20.815 7.27138Z" fill="#675749"/>
<path d="M21.5411 4.70585C21.2964 4.41799 21.0194 4.2273 20.8179 4.17693C20.987 3.10107 21.8757 1.68339 23.9986 1.6582C23.9986 1.6582 22.5522 2.54336 22.106 3.30257C21.7354 3.92866 21.5771 4.33164 21.5411 4.70585Z" fill="#C7C7C7"/>
<path d="M22.0959 6.55413C22.3694 6.56492 22.92 6.57212 23.3482 6.48936C23.9418 6.37422 24.4959 5.70496 24.4959 5.70496C24.4959 5.70496 24.1289 5.53945 23.3625 5.57543C22.758 5.60422 22.2723 5.87407 22.0959 5.98921C22.1031 6.05398 22.1068 6.12234 22.1068 6.19071C22.1068 6.31304 22.1031 6.43539 22.0959 6.55413Z" fill="#565857"/>
<path d="M19.5911 11.2509C19.5911 11.2509 19.4436 11.7763 19.4436 12.3736C19.4436 12.9708 19.7171 13.7121 20.1921 14.1187C20.1921 14.1187 20.3684 13.8416 20.2712 13.5574C20.1776 13.2731 20.1345 13.1723 20.2316 13.0464C20.2316 13.0464 20.2388 13.2983 20.4007 13.3451C20.4007 13.3451 20.3827 12.9924 20.4331 12.7334C20.4835 12.4743 20.4979 12.0965 20.372 11.8158C20.246 11.5352 20.246 11.1934 20.246 11.1934L19.5911 11.2509Z" fill="#CED0CF"/>
<path d="M15.4536 28.2091L16.5799 28.3495C16.641 28.9396 16.695 29.357 16.695 29.357L15.9862 28.9216L15.4608 29.2058C15.4644 29.2094 15.4644 28.8064 15.4536 28.2091ZM5.51188 28.846L6.32147 29.1447C6.32147 29.1447 6.15238 28.7561 5.98686 28.1588L4.91101 28.2919C5.04774 28.9935 5.02973 29.2922 5.02973 29.2922L5.51188 28.846ZM19.7967 29.1447L20.1889 28.7165L21.0524 28.8748C21.0524 28.8748 20.8149 28.4826 20.5847 27.9429L19.4296 28.2415C19.6132 28.7561 19.7967 29.1447 19.7967 29.1447ZM9.28997 29.2346L9.62461 28.7777L10.517 28.8856C10.517 28.8856 10.3334 28.5258 10.0528 27.9429L8.91218 28.3243C9.16046 28.9216 9.28997 29.2346 9.28997 29.2346Z" fill="#8D8E93"/>
</svg>
