<svg width="26" height="31" viewBox="0 0 26 31" fill="none" xmlns="http://www.w3.org/2000/svg">
<path d="M24.9795 5.18933C24.9435 5.08139 24.8536 5.00224 24.7421 4.97705C24.7025 4.96985 23.7418 4.75396 22.9646 4.76835C22.5004 4.77195 22.0362 4.94467 21.6944 5.11738C21.6116 4.93388 21.5037 4.76117 21.3849 4.60285C21.4389 4.3042 21.5936 3.96235 21.8887 3.45861C22.2233 2.89729 23.2884 2.16326 23.6734 1.92938C23.7993 1.85382 23.8569 1.70271 23.8173 1.55878C23.7777 1.41845 23.6482 1.32129 23.5043 1.32129H23.5007C21.4029 1.34648 20.3595 2.63464 20.0572 3.83643C19.8126 3.86162 19.629 3.93718 19.5031 3.98755C19.4779 3.99835 19.4563 4.00554 19.4383 4.01274C19.4203 4.00554 19.3988 3.99835 19.3772 3.98755C19.2476 3.93358 19.0677 3.86162 18.8194 3.83643C18.5172 2.63464 17.4737 1.34648 15.376 1.32129H15.3724C15.2285 1.32129 15.0989 1.41845 15.0594 1.55878C15.0198 1.69911 15.0774 1.85022 15.2033 1.92938C15.5847 2.16326 16.6534 2.89729 16.988 3.45861C17.283 3.96235 17.4378 4.3078 17.4917 4.60285C17.3694 4.76117 17.2651 4.93748 17.1823 5.11738C16.8405 4.94467 16.3763 4.77195 15.9121 4.76835C15.1349 4.76475 14.1778 4.96626 14.1382 4.97705C14.0267 5.00224 13.9403 5.08139 13.9008 5.18933C13.8648 5.29728 13.8827 5.41244 13.9547 5.50239C14.0303 5.59594 14.7031 6.43071 15.1745 6.70777C15.6315 6.97404 15.9193 7.07839 17.006 7.046C17.06 7.4382 17.1427 7.78002 17.2219 8.11465C17.2902 8.4061 17.3586 8.68318 17.4018 8.98182C17.4234 9.13295 17.4522 9.29486 17.4881 9.47117C17.3298 9.89935 17.042 10.5938 16.6749 11.0256C16.1424 11.6553 15.5883 12.105 13.3179 12.105C12.3967 12.105 11.4252 12.0043 10.4861 11.9071C9.01799 11.756 7.62913 11.6121 6.6972 11.8963C5.65733 12.2166 4.86934 12.562 4.23246 12.9758C3.90502 12.9002 3.39046 12.7203 2.95149 12.2957C2.23545 11.6013 1.78208 10.7233 1.77848 10.7125C1.71371 10.5866 1.5806 10.5182 1.44027 10.5362C1.30354 10.5542 1.19199 10.6622 1.1632 10.7989C1.15241 10.8493 0.918528 12.0834 1.03007 12.9578C1.03007 12.9614 1.03008 12.965 1.03367 12.9722C0.997692 13.0478 0.99408 13.1305 1.01927 13.2097C1.07324 13.3752 1.12723 13.4831 1.17401 13.5515C1.17401 13.5551 1.17757 13.5623 1.17757 13.5659C1.20995 13.7062 1.29274 13.8754 1.44027 13.9797C1.46186 14.0337 1.49781 14.084 1.54819 14.1236C1.55898 14.1308 1.81806 14.3251 2.13829 14.4618C2.29302 14.5266 2.48734 14.5734 2.69603 14.6022C2.69603 14.6058 2.69243 14.6058 2.69243 14.6094C2.1527 15.6816 2.39377 16.6999 2.58807 17.5167C2.67442 17.8729 2.75357 18.2112 2.75717 18.499C2.76077 18.6681 2.76438 18.8696 2.77158 19.0891C2.79676 20.1362 2.83994 21.7194 2.7212 22.2375L2.70323 22.3167C2.55571 22.9571 2.42616 23.5077 2.82196 24.1517C3.12061 24.6339 3.68192 26.5589 3.98416 27.7751C4.04173 28.0054 4.09213 28.2357 4.1389 28.4947C4.1461 28.5271 4.14967 28.5595 4.15687 28.6027L4.19644 28.8833C4.22523 29.1388 4.22165 29.2575 4.22165 29.2575C4.21086 29.3907 4.28283 29.5202 4.40516 29.5778C4.5275 29.6354 4.67143 29.6138 4.76858 29.5238L5.10319 29.2144L5.72567 29.4411C5.84441 29.4842 5.97757 29.4447 6.06752 29.3547C6.15748 29.2648 6.18264 29.1172 6.13587 28.9985L6.04231 28.7574C6.03871 28.7502 6.03511 28.743 6.03511 28.7358C6.01352 28.6782 5.99195 28.6135 5.97036 28.5451C5.92719 28.4084 5.8732 28.2465 5.82283 28.0666C5.74726 27.7931 5.6933 27.5592 5.65012 27.3289C5.47741 26.4438 4.99524 24.0078 4.8765 23.4069C4.91968 23.3457 4.97725 23.2558 5.04921 23.1515C5.04921 23.1802 5.05281 23.209 5.05641 23.2414C5.12118 24.015 5.32628 24.3928 5.68609 24.3928C5.75806 24.3928 5.81923 24.3748 5.87321 24.346C5.90919 24.3928 5.94875 24.4432 5.99193 24.4936C6.48488 25.0837 7.23331 26.2459 7.70827 27.4081C7.87378 27.8183 8.02133 28.1709 8.13647 28.448L8.43151 29.1676C8.4351 29.1784 8.45312 29.218 8.45672 29.2288C8.46391 29.2432 8.46748 29.2576 8.47468 29.2684C8.49987 29.3367 8.51426 29.3655 8.51426 29.3655C8.56103 29.4698 8.66178 29.5454 8.78052 29.5562C8.89566 29.5634 9.01083 29.5166 9.0792 29.4231L9.29868 29.1208L10.0003 29.2072C10.119 29.2216 10.2378 29.1676 10.3061 29.0705C10.3745 28.9733 10.3853 28.8438 10.3314 28.7358C10.3278 28.7322 10.3241 28.725 10.3205 28.7142C10.317 28.7106 10.3169 28.7034 10.3133 28.6998L10.299 28.671L10.2738 28.6171C10.227 28.5235 10.155 28.3796 10.0615 28.1853L9.87438 27.7967C9.72325 27.48 9.48217 26.9619 9.19072 26.307C9.06478 26.0192 8.93527 25.7313 8.81293 25.4507C8.42793 24.5835 7.94938 23.5077 7.92059 23.3278C7.92419 23.2342 8.0393 22.878 8.11486 22.6441C8.17243 22.4714 8.23004 22.2915 8.28041 22.126C8.83453 22.1799 10.155 22.2843 11.7311 22.2843C12.3859 22.2843 13.2423 22.2195 14.2821 22.09C14.3541 23.0435 14.4225 23.8387 14.4873 24.5116C14.5988 25.6414 14.6384 27.3145 14.6528 28.2069L14.6564 28.6063C14.66 28.671 14.66 28.7286 14.66 28.7862C14.6636 29.0489 14.6636 29.2036 14.6636 29.2036C14.6636 29.3187 14.7247 29.4267 14.8219 29.4842C14.919 29.5418 15.045 29.5454 15.1457 29.4914L15.5055 29.2971L16.0525 29.6318C16.1064 29.6642 16.164 29.6786 16.2216 29.6786C16.2827 29.6786 16.3439 29.6606 16.3979 29.6282C16.5022 29.5598 16.5598 29.4375 16.5454 29.3151L16.4627 28.6423L16.4591 28.6099C16.4519 28.5163 16.441 28.4192 16.4302 28.3112C16.4302 28.2968 16.4266 28.2824 16.423 28.268C16.2647 26.7388 16.2144 25.609 16.2756 24.9973C16.3511 24.1625 16.6965 22.5433 16.8872 21.6978C16.9268 21.6906 16.9664 21.6834 16.9988 21.6762C17.1283 22.2303 17.4162 23.4177 17.6536 24.2201C17.8335 24.8174 17.9991 25.6306 18.1466 26.3502C18.2581 26.8864 18.3589 27.3937 18.4524 27.7319C18.5028 27.919 18.564 28.1169 18.6467 28.3472C18.7511 28.6423 18.8734 28.9517 19.0066 29.2432C19.0066 29.2432 19.0138 29.254 19.0174 29.2612C19.0354 29.3007 19.0605 29.3403 19.0893 29.3727C19.1505 29.4339 19.244 29.4627 19.3268 29.4699C19.4168 29.4663 19.4995 29.4303 19.5607 29.3655L19.8306 29.0705L20.5142 29.1964C20.6402 29.218 20.7697 29.1676 20.8416 29.0597C20.9136 28.9553 20.9208 28.815 20.8524 28.7034C20.8488 28.6998 20.6257 28.322 20.4063 27.8111C20.2767 27.5088 20.1759 27.2246 20.1112 26.9727L20.0536 26.746C19.827 25.8825 19.5679 24.9002 19.5427 23.5005C19.5175 22.2303 19.5031 20.9386 19.4995 20.5068C19.701 20.3233 20.1112 19.9167 20.4278 19.359C20.6005 19.0495 20.7625 18.6465 20.91 18.1572C21.0791 17.7866 21.2051 17.3368 21.3094 16.7467C21.5433 15.4082 21.6656 13.2924 20.9532 10.7701C21.2087 10.3275 21.3886 9.74104 21.5037 8.97822C21.5505 8.67598 21.6153 8.40252 21.6836 8.11107C21.7628 7.77644 21.8455 7.4346 21.8995 7.0424C22.9862 7.07478 23.274 6.97043 23.731 6.70057C24.2023 6.42351 24.8752 5.58874 24.9471 5.49519C24.9975 5.41243 25.0191 5.29368 24.9795 5.18933Z" fill="white" stroke="white" stroke-width="1.40106" stroke-miterlimit="10" stroke-linecap="round" stroke-linejoin="round"/>
<path d="M17.8816 9.28662C17.8816 9.28662 17.5038 10.5388 16.9101 11.2404C16.3164 11.9421 15.6867 12.435 13.3047 12.435C10.9227 12.435 8.20966 11.773 6.78118 12.2119C5.35271 12.6509 3.67956 13.349 2.96352 14.7667C2.25108 16.1843 3.04985 17.4797 3.06784 18.5015C3.08583 19.5234 3.17578 21.65 3.02106 22.3192C2.86634 22.9885 2.74041 23.4382 3.07864 23.9888C3.41687 24.5357 3.99976 26.5759 4.27682 27.7021C4.55388 28.8283 4.52872 29.2889 4.52872 29.2889L5.00726 28.8427L5.81685 29.1414C5.81685 29.1414 5.49664 28.4037 5.30234 27.3927C5.10803 26.3816 4.50351 23.3375 4.50351 23.3375C4.50351 23.3375 5.77367 21.5204 6.39615 20.0164C6.39615 20.0164 8.13411 20.6281 10.3902 20.7828C12.6462 20.9375 14.4813 20.7037 14.4813 20.7037C14.4813 20.7037 14.6144 22.7366 14.7835 24.4817C14.9562 26.2233 14.9598 29.2061 14.9598 29.2061L15.4852 28.9219L16.194 29.3573C16.194 29.3573 15.7946 26.2988 15.9206 24.9675C16.0465 23.6362 16.8237 20.3618 16.8237 20.3618C16.8237 20.3618 18.2593 20.0632 19.2632 19.4191C20.2671 18.775 20.6917 18.2353 20.9616 16.6989C21.2315 15.1625 21.2782 13.0071 20.519 10.5568L17.8816 9.28662Z" fill="#748697"/>
<path d="M11.7059 21.9582C12.5442 21.9582 13.5949 21.8502 14.5556 21.7243C14.5125 21.1162 14.4837 20.7024 14.4837 20.7024C14.4837 20.7024 12.6486 20.9363 10.3926 20.7816C8.13651 20.6268 6.39855 20.0151 6.39855 20.0151C6.19346 20.5117 5.9164 21.0442 5.63574 21.5336C5.75808 21.9222 5.89484 22.4511 5.89124 22.8649C5.88405 23.6133 5.76527 23.7285 6.21865 24.2754C6.67202 24.8223 7.46363 26.0025 7.98896 27.2763C8.5107 28.5536 8.78775 29.2229 8.78775 29.2229L9.1224 28.7659L10.0147 28.8738C10.0147 28.8738 9.48219 27.8304 8.8669 26.4307C8.25161 25.031 7.57515 23.5665 7.56436 23.3327C7.55357 23.0988 7.88823 22.2892 8.00697 21.7639C8.01057 21.7711 9.61892 21.9582 11.7059 21.9582Z" fill="#343C42"/>
<path d="M19.198 23.512C19.1692 21.954 19.1549 20.3636 19.1549 20.3636C19.1549 20.3636 19.7234 19.9138 20.1263 19.2014C20.3278 18.8488 20.479 18.4026 20.5833 18.0464C20.3063 18.6437 19.9033 19.0107 19.27 19.4173C18.2661 20.0614 16.8304 20.36 16.8304 20.36C16.8304 20.36 16.7261 20.7954 16.5894 21.4107C16.9816 21.3423 17.2262 21.2955 17.2262 21.2955C17.2262 21.2955 17.6328 23.0658 17.9495 24.1273C18.2661 25.1888 18.5396 26.8763 18.7483 27.6463C18.9606 28.4163 19.3024 29.1432 19.3024 29.1432L19.6946 28.715L20.5582 28.8733C20.5582 28.8733 20.0292 27.9989 19.7809 27.0562C19.5327 26.1135 19.2268 25.0736 19.198 23.512Z" fill="#343C42"/>
<path d="M3.24166 14.3118C3.52232 13.9232 3.88211 13.5994 4.2887 13.3223C3.99725 13.2719 3.2992 13.0992 2.7127 12.5307C1.94629 11.7895 1.47495 10.8647 1.47495 10.8647C1.47495 10.8647 1.24107 12.0845 1.34542 12.9229C1.34542 12.9229 1.55412 13.1352 1.75561 13.1568C1.75561 13.1568 1.48932 13.1532 1.3202 13.1136C1.3202 13.1136 1.39938 13.3583 1.46774 13.4087C1.46774 13.4087 1.69441 13.441 1.76637 13.4446C1.76637 13.4446 1.65846 13.5022 1.48215 13.495C1.48215 13.495 1.53251 13.7109 1.69443 13.7505C1.69443 13.7505 1.85996 13.7685 1.93192 13.7505C1.93192 13.7505 1.82756 13.8225 1.734 13.862C1.734 13.862 1.96431 14.0383 2.24856 14.1571C2.50763 14.2722 2.90703 14.3226 3.24166 14.3118Z" fill="#748697"/>
<path d="M5.11548 22.4054C5.18744 22.5097 5.27737 22.6393 5.31695 22.6825C5.38532 22.7652 5.33134 22.9199 5.35653 23.2078C5.38891 23.5964 5.4825 24.0605 5.65881 24.0605C5.75596 24.0605 5.92145 23.8159 5.99341 22.9811C5.99341 22.9811 6.29207 23.0171 6.41081 22.9883C6.41081 22.9883 6.51876 23.5388 6.6411 23.7691C6.76344 23.9994 6.84621 24.0318 6.92177 24.0246C6.99733 24.0174 7.13766 23.7619 7.0513 22.74C7.0513 22.74 7.34276 22.6753 8.00843 21.7721C8.00843 21.7721 6.47919 21.5418 5.70558 21.4087C5.50409 21.7685 5.29899 22.1103 5.11548 22.4054Z" fill="#C28C93"/>
<path d="M24.6682 5.29689C24.6682 5.29689 23.9701 6.17123 23.5384 6.4267C23.1138 6.67857 22.8727 6.76854 21.581 6.71097C21.5054 7.57093 21.2679 8.17903 21.1528 8.93824C21.016 9.84498 20.6527 11.403 19.4293 11.403C18.2059 11.403 17.8425 9.84498 17.7057 8.93824C17.5906 8.17903 17.3531 7.57093 17.2775 6.71097C15.9858 6.76854 15.7447 6.67497 15.3201 6.4267C14.8884 6.17483 14.1903 5.29689 14.1903 5.29689C14.1903 5.29689 15.1366 5.0846 15.8886 5.09539C16.5075 5.10259 17.1336 5.4624 17.3351 5.58834C17.5798 4.73917 18.2922 4.15625 18.6377 4.15625C19.0586 4.15625 19.2925 4.34696 19.4257 4.34696C19.5588 4.34696 19.7927 4.15625 20.2137 4.15625C20.5591 4.15625 21.2715 4.73917 21.5162 5.58834C21.7177 5.4624 22.3438 5.10259 22.9627 5.09539C23.7219 5.0846 24.6682 5.29689 24.6682 5.29689Z" fill="#95A9B7"/>
<path d="M21.4553 5.39384C21.243 5.40823 20.786 5.48741 20.437 5.88321C19.9656 6.41934 19.8289 7.15335 19.8505 7.98093C19.8721 8.75814 20.0232 9.2259 20.0412 9.28347C20.0052 9.2259 19.944 9.18273 19.8505 9.18273C19.559 9.18273 19.5123 9.37703 19.4331 9.37703C19.3503 9.37703 19.3072 9.18273 19.0157 9.18273C18.9186 9.18273 18.8574 9.2223 18.825 9.28347C18.843 9.2295 18.9941 8.75814 19.0157 7.98093C19.0373 7.15335 18.9006 6.41934 18.4292 5.88321C18.0802 5.48741 17.6232 5.40823 17.4109 5.39384C17.6987 4.65262 18.3284 4.15967 18.6487 4.15967C19.0697 4.15967 19.3035 4.35038 19.4367 4.35038C19.5698 4.35038 19.8037 4.15967 20.2247 4.15967C20.5377 4.15967 21.1674 4.65262 21.4553 5.39384Z" fill="#748697"/>
<path d="M20.232 10.3484C20.0665 10.5103 19.8002 10.6435 19.4332 10.6435C19.0662 10.6435 18.7999 10.5103 18.6344 10.3484C18.4689 10.1901 18.4725 10.0462 18.5444 10.0318C18.6164 10.0174 18.6632 10.075 18.7495 10.2117C18.8359 10.3484 19.1345 10.4887 19.3684 10.5031V9.98861C19.2281 9.95982 18.951 9.8051 18.8539 9.67917C18.7567 9.55323 18.7207 9.18262 19.0122 9.18262C19.3036 9.18262 19.3504 9.37691 19.4296 9.37691C19.5124 9.37691 19.5555 9.18262 19.847 9.18262C20.1384 9.18262 20.0989 9.55323 20.0053 9.67917C19.9081 9.8051 19.6311 9.95982 19.4907 9.98861V10.5031C19.7246 10.4887 20.0233 10.3484 20.1096 10.2117C20.196 10.0786 20.2464 10.0174 20.3183 10.0318C20.3939 10.0462 20.3975 10.1901 20.232 10.3484Z" fill="#736959"/>
<path d="M19.1633 9.49591C19.0841 9.45273 19.0229 9.39516 18.9654 9.44913C18.9078 9.5031 18.9438 9.62545 19.0625 9.68302C19.1813 9.74059 19.2604 9.70461 19.2748 9.63985C19.2892 9.57508 19.2245 9.53189 19.1633 9.49591Z" fill="#504740"/>
<path d="M18.5501 7.26504C18.5177 7.26504 18.4926 7.24344 18.4818 7.21466C18.4458 7.08512 18.3234 6.99157 18.1831 6.99157C18.0428 6.99157 17.9204 7.08512 17.8845 7.21466C17.8773 7.24344 17.8484 7.26504 17.8161 7.26504C17.7693 7.26504 17.7333 7.22186 17.7477 7.17508C17.8017 6.98438 17.978 6.84766 18.1831 6.84766C18.3918 6.84766 18.5645 6.98798 18.6185 7.17508C18.6329 7.22186 18.5969 7.26504 18.5501 7.26504Z" fill="#675749"/>
<path d="M17.8252 4.69901C18.0699 4.41116 18.347 4.22047 18.5485 4.17009C18.3793 3.09424 17.4906 1.67655 15.3677 1.65137C15.3677 1.65137 16.8141 2.53652 17.2603 3.29574C17.6309 3.92182 17.7892 4.3248 17.8252 4.69901Z" fill="#978575"/>
<path d="M17.27 6.54875C16.9965 6.55955 16.446 6.56675 16.0178 6.48399C15.4241 6.36885 14.87 5.69959 14.87 5.69959C14.87 5.69959 15.237 5.53408 16.0034 5.57006C16.6079 5.59885 17.0937 5.8687 17.27 5.98384C17.2628 6.0486 17.2592 6.11697 17.2592 6.18533C17.2592 6.30767 17.2628 6.43001 17.27 6.54875Z" fill="#343C42"/>
<path d="M19.7028 9.49591C19.782 9.45273 19.8431 9.39516 19.9007 9.44913C19.9583 9.49951 19.9223 9.62545 19.8035 9.68302C19.6848 9.74059 19.6057 9.70461 19.5913 9.63985C19.5769 9.57508 19.6417 9.53189 19.7028 9.49591Z" fill="#504740"/>
<path d="M20.3143 7.26504C20.3467 7.26504 20.3718 7.24344 20.3826 7.21466C20.4186 7.08512 20.541 6.99157 20.6813 6.99157C20.8216 6.99157 20.9439 7.08512 20.9799 7.21466C20.9871 7.24344 21.0159 7.26504 21.0483 7.26504C21.0951 7.26504 21.1311 7.22186 21.1167 7.17508C21.0627 6.98438 20.8864 6.84766 20.6813 6.84766C20.4726 6.84766 20.2999 6.98798 20.2459 7.17508C20.2315 7.22186 20.2675 7.26504 20.3143 7.26504Z" fill="#675749"/>
<path d="M21.0404 4.69901C20.7957 4.41116 20.5186 4.22047 20.3171 4.17009C20.4863 3.09424 21.375 1.67655 23.4979 1.65137C23.4979 1.65137 22.0514 2.53652 21.6053 3.29574C21.2347 3.92182 21.0764 4.3248 21.0404 4.69901Z" fill="#978575"/>
<path d="M21.5952 6.54875C21.8687 6.55955 22.4192 6.56675 22.8474 6.48399C23.4411 6.36885 23.9952 5.69959 23.9952 5.69959C23.9952 5.69959 23.6282 5.53408 22.8618 5.57006C22.2573 5.59885 21.7715 5.8687 21.5952 5.98384C21.6024 6.0486 21.606 6.11697 21.606 6.18533C21.606 6.30767 21.6024 6.43001 21.5952 6.54875Z" fill="#343C42"/>
<path d="M19.0911 11.2475C19.0911 11.2475 18.9436 11.7728 18.9436 12.3701C18.9436 12.9674 19.2171 13.7087 19.6921 14.1153C19.6921 14.1153 19.8684 13.8382 19.7712 13.5539C19.6776 13.2697 19.6345 13.1689 19.7316 13.043C19.7316 13.043 19.7388 13.2949 19.9007 13.3416C19.9007 13.3416 19.8827 12.989 19.9331 12.73C19.9835 12.4709 19.9979 12.0931 19.872 11.8124C19.746 11.5354 19.746 11.1899 19.746 11.1899L19.0911 11.2475Z" fill="#95A9B7"/>
<path d="M14.9536 28.2054L16.0799 28.3457C16.141 28.9358 16.195 29.3532 16.195 29.3532L15.4862 28.9178L14.9609 29.2021C14.9644 29.2021 14.9644 28.7991 14.9536 28.2054ZM5.01188 28.8423L5.82147 29.1409C5.82147 29.1409 5.65238 28.7523 5.48686 28.155L4.41101 28.2882C4.54774 28.9898 4.52973 29.2885 4.52973 29.2885L5.01188 28.8423ZM19.2967 29.1409L19.6889 28.7127L20.5524 28.8711C20.5524 28.8711 20.3149 28.4789 20.0847 27.9391L18.9297 28.2378C19.1132 28.7487 19.2967 29.1409 19.2967 29.1409ZM8.78997 29.2273L9.12462 28.7703L10.017 28.8783C10.017 28.8783 9.83344 28.5185 9.55278 27.9355L8.41218 28.317C8.66046 28.9178 8.78997 29.2273 8.78997 29.2273Z" fill="#6F6257"/>
</svg>
