<svg width="24" height="24" viewBox="0 0 24 24" fill="none" xmlns="http://www.w3.org/2000/svg">
<path fill-rule="evenodd" clip-rule="evenodd" d="M11.1121 17.114C14.4258 17.114 17.1121 14.4277 17.1121 11.114C17.1121 7.80032 14.4258 5.11403 11.1121 5.11403C7.79835 5.11403 5.11206 7.80032 5.11206 11.114C5.11206 14.4277 7.79835 17.114 11.1121 17.114ZM11.1121 18.114C14.9781 18.114 18.1121 14.98 18.1121 11.114C18.1121 7.24804 14.9781 4.11403 11.1121 4.11403C7.24607 4.11403 4.11206 7.24804 4.11206 11.114C4.11206 14.98 7.24607 18.114 11.1121 18.114Z" fill="#1A1817"/>
<path fill-rule="evenodd" clip-rule="evenodd" d="M15.4987 15.4969C15.694 15.3016 16.0106 15.3016 16.2058 15.4969L19.7414 19.0324C19.9366 19.2277 19.9366 19.5443 19.7414 19.7395C19.5461 19.9348 19.2295 19.9348 19.0343 19.7395L15.4987 16.204C15.3035 16.0087 15.3035 15.6921 15.4987 15.4969Z" fill="#1A1817"/>
</svg>
