<svg width="97" height="24" viewBox="0 0 97 24" fill="none" xmlns="http://www.w3.org/2000/svg">
<rect width="96.7557" height="24" rx="12" fill="#B2FCE4"/>
<path fill-rule="evenodd" clip-rule="evenodd" d="M83.6774 11.6545L81.4879 12.9104L79.2673 14.1842C77.7954 15.0284 75.9607 13.9661 75.9607 12.2697V11.9333C75.9607 11.5981 75.5981 11.3882 75.3073 11.555L73.2777 12.7191L71.2543 13.8798C70.9621 14.0474 70.9621 14.4688 71.2543 14.6365L73.2777 15.7971L75.3073 16.9612C75.5981 17.128 75.9607 16.9181 75.9607 16.5828V15.9051C75.9607 15.5756 76.317 15.3694 76.6028 15.5333L77.633 16.1242C77.7688 16.2021 77.8525 16.3465 77.8525 16.503V16.7896C77.8525 18.486 76.0178 19.5482 74.5459 18.704L72.3253 17.4303L70.1358 16.1744C68.657 15.3261 68.657 13.1937 70.1358 12.3455L72.3253 11.0896L74.546 9.81585C76.0178 8.97159 77.8525 10.0339 77.8525 11.7303V12.0666C77.8524 12.4019 78.2151 12.6118 78.5059 12.445L80.5355 11.2809L82.5589 10.1202C82.8511 9.95263 82.8511 9.53121 82.5589 9.36355L80.5355 8.20295L78.5059 7.03883C78.2151 6.87195 77.8525 7.08189 77.8525 7.41716V8.09426C77.8525 8.42365 77.4962 8.62993 77.2104 8.46602L76.1801 7.87507C76.0444 7.79721 75.9607 7.65277 75.9607 7.49633V7.21046C75.9607 5.514 77.7954 4.45178 79.2673 5.29599L81.4879 6.56975L83.6774 7.82563C85.1151 8.67386 85.1151 10.8063 83.6774 11.6545ZM62.032 18.8414L63.9507 14.8817L60.9339 8.24491H63.1198L65.0579 12.6892L67.1756 8.24491H69.2988L64.1629 18.8414H62.032ZM58.3351 14.7914C57.7781 15.4687 56.9501 15.8901 55.9567 15.8901C53.8943 15.8901 52.3288 14.2346 52.3288 12.0073C52.3288 9.7951 53.9545 8.10945 56.0018 8.10945C56.9651 8.10945 57.7781 8.53096 58.3351 9.19311V8.24495H60.1868V15.7696H58.3351V14.7914ZM56.2727 9.85526C55.1438 9.85526 54.2255 10.7582 54.2255 12.0073C54.2255 13.2413 55.1438 14.1594 56.2727 14.1594C57.4019 14.1594 58.32 13.2715 58.32 12.0073C58.32 10.7433 57.4019 9.85526 56.2727 9.85526ZM47.9751 15.8901C47.0266 15.8901 46.2439 15.5139 45.7019 14.8818V18.8414H43.7901V8.245H45.6417V9.22307C46.1987 8.53087 47.0266 8.10945 48.0202 8.10945C50.0524 8.10945 51.6481 9.78 51.6481 11.9923C51.6481 14.2044 50.0223 15.8901 47.9751 15.8901ZM47.7041 9.85516C46.575 9.85516 45.6567 10.7583 45.6567 12.0073C45.6567 13.2413 46.575 14.1594 47.7041 14.1594C48.833 14.1594 49.7513 13.2263 49.7513 12.0073C49.7513 10.7883 48.833 9.85516 47.7041 9.85516ZM41.5559 9.8553C40.9164 9.94196 40.5115 10.5291 40.5135 11.315V15.7696H38.6018V8.24491H40.4533V8.9824C40.4533 8.9824 40.9244 8.1095 42.0791 8.1095C42.5728 8.1095 42.8922 8.27934 42.8922 8.27934V10.1987C42.8922 10.1987 42.1955 9.76855 41.5559 9.8553ZM31.8776 12.504C32.0131 13.6175 32.8109 14.2497 33.8196 14.2497C34.6174 14.2497 35.2347 13.8733 35.5959 13.2715H37.5378C37.0863 14.8668 35.6561 15.89 33.7745 15.89C31.5014 15.89 29.9056 14.2948 29.9056 12.0224C29.9056 9.7499 31.5917 8.10945 33.8196 8.10945C36.0626 8.10945 37.6884 9.7649 37.6884 12.0224C37.6884 12.1879 37.6733 12.3535 37.6432 12.504H31.8776ZM33.7894 9.7649C32.8562 9.7649 32.0884 10.3368 31.8927 11.33H35.6561C35.5206 10.3519 34.7227 9.7649 33.7894 9.7649ZM26.1272 13.5724V9.88531H23.6837V15.7696H21.7868V9.88531H20.7331V8.24495H21.7868V7.24024C21.7868 5.67509 22.5245 5.16336 24.0901 5.16336H25.0035V6.62316H24.5869C23.9245 6.62316 23.6837 6.86411 23.6837 7.49615V8.24495H26.1272V6.40907H28.024V8.24495H29.2131V9.88531H28.024V13.2263C28.024 13.8584 28.2045 14.0991 28.8519 14.0991H29.2282V15.7696H28.2497C26.7142 15.7696 26.1272 15.1075 26.1272 13.5724ZM18.0064 14.7914C17.4493 15.4687 16.6213 15.8901 15.6279 15.8901C13.5655 15.8901 12 14.2346 12 12.0073C12 9.7951 13.6257 8.10945 15.673 8.10945C16.6364 8.10945 17.4493 8.53096 18.0064 9.19311V8.24495H19.8579V15.7696H18.0064V14.7914ZM15.944 9.85526C14.815 9.85526 13.8967 10.7582 13.8967 12.0073C13.8967 13.2413 14.815 14.1594 15.944 14.1594C17.073 14.1594 17.9913 13.2715 17.9913 12.0073C17.9913 10.7433 17.073 9.85526 15.944 9.85526Z" fill="black"/>
</svg>
