<svg width="69" height="24" viewBox="0 0 69 24" fill="none" xmlns="http://www.w3.org/2000/svg">
<rect width="68.7972" height="24" rx="12" fill="#FFC0CB"/>
<path d="M19.8833 7H17.6775C17.6775 8.81009 16.8467 10.4619 15.4026 11.55L14.5321 12.2028L17.9149 16.8121H20.6944L17.5786 12.5687C19.0524 11.1048 19.8833 9.12661 19.8833 7Z" fill="black"/>
<path d="M14.2552 7H12V16.8121H14.2552V7Z" fill="black"/>
<path d="M23.4738 7H21.3472V16.8121H23.4738V7Z" fill="black"/>
<path d="M42.1286 9.83877C41.3175 9.83877 40.546 10.0861 40.0317 10.7883V10.0267H38.0138V16.8121H40.0613V13.2512C40.0613 12.2226 40.7537 11.7181 41.5846 11.7181C42.4748 11.7181 42.9891 12.2522 42.9891 13.2413V16.822H45.0168V12.4995C45.0168 10.9169 43.7606 9.83877 42.1286 9.83877Z" fill="black"/>
<path d="M29.9031 10.0267V10.4619C29.3294 10.0663 28.637 9.83877 27.8853 9.83877C25.907 9.83877 24.3046 11.4411 24.3046 13.4194C24.3046 15.3976 25.907 17 27.8853 17C28.637 17 29.3294 16.7725 29.9031 16.3769V16.8121H31.9308V10.0267H29.9031ZM28.0534 15.1602C27.0346 15.1602 26.2136 14.3788 26.2136 13.4194C26.2136 12.4599 27.0346 11.6785 28.0534 11.6785C29.0722 11.6785 29.8932 12.4599 29.8932 13.4194C29.8932 14.3788 29.0722 15.1602 28.0534 15.1602Z" fill="black"/>
<path d="M35.0762 10.907V10.0267H32.999V16.8121H35.0861V13.6469C35.0861 12.5786 36.2433 12.0049 37.0445 12.0049C37.0544 12.0049 37.0643 12.0049 37.0643 12.0049V10.0267C36.2433 10.0267 35.4817 10.3828 35.0762 10.907Z" fill="black"/>
<path d="M51.3274 10.0267V10.4619C50.7537 10.0663 50.0613 9.83877 49.3096 9.83877C47.3314 9.83877 45.729 11.4411 45.729 13.4194C45.729 15.3976 47.3314 17 49.3096 17C50.0613 17 50.7537 16.7725 51.3274 16.3769V16.8121H53.3551V10.0267H51.3274ZM49.4777 15.1602C48.459 15.1602 47.638 14.3788 47.638 13.4194C47.638 12.4599 48.459 11.6785 49.4777 11.6785C50.4965 11.6785 51.3175 12.4599 51.3175 13.4194C51.3274 14.3788 50.4965 15.1602 49.4777 15.1602Z" fill="black"/>
<path d="M55.5213 14.4085C54.819 14.4085 54.2453 14.9822 54.2453 15.6845C54.2453 16.3867 54.819 16.9604 55.5213 16.9604C56.2235 16.9604 56.7972 16.3867 56.7972 15.6845C56.7972 14.9723 56.2235 14.4085 55.5213 14.4085Z" fill="black"/>
</svg>
